<svg xmlns="http://www.w3.org/2000/svg"  viewBox="0 0 64 64" width="64px" height="64px"><path fill="#9c34c2" d="M58,39H6v0c0-2.642,0.504-5.26,1.486-7.714l3.956-9.887c1.063-2.657,3.637-4.4,6.499-4.4h28.118	c2.862,0,5.436,1.742,6.499,4.4l3.956,9.887C57.496,33.74,58,36.358,58,39L58,39z"/><ellipse cx="32" cy="61" opacity=".3" rx="19" ry="3"/><circle cx="18" cy="39" r="12" fill="#9c34c2"/><circle cx="18" cy="39" r="7" fill="#4ccff1"/><path fill="#fff" d="M14.5,40.5c-0.828,0-1.5-0.672-1.5-1.5c0-2.757,2.243-5,5-5c0.828,0,1.5,0.672,1.5,1.5 S18.828,37,18,37c-1.103,0-2,0.897-2,2C16,39.828,15.328,40.5,14.5,40.5z"/><circle cx="23" cy="19" r="6" fill="#9c34c2"/><circle cx="41" cy="19" r="6" fill="#9c34c2"/><circle cx="46" cy="39" r="12" fill="#9c34c2"/><circle cx="46" cy="39" r="7" fill="#4ccff1"/><circle cx="32" cy="38.5" r="5.5" fill="#9c34c2"/><path d="M52.558,21.4c-0.654-1.635-1.889-2.903-3.404-3.647c-1.463,1.367-2.026,3.533-1.238,5.504 l3.956,9.888C52.62,35.014,53,36.983,53,39c0,3.859-3.141,7-7,7c-2.401,0-4.403,1.694-4.886,3.951C42.607,50.62,44.257,51,46,51 c6.627,0,12-5.373,12-12c0-2.642-0.504-5.26-1.486-7.714L52.558,21.4z" opacity=".15"/><path fill="#fff" d="M27.526,15.095C26.428,13.819,24.816,13,23,13c-2.629,0-4.857,1.693-5.668,4.046 c-2.612,0.229-4.903,1.888-5.89,4.353l-3.956,9.887c-0.62,1.551-1.027,3.171-1.259,4.817c0.419,0.109,0.839,0.184,1.258,0.184 c1.984,0,3.862-1.189,4.645-3.144l3.954-9.886c0.277-0.692,0.924-1.164,1.687-1.231c1.966-0.173,3.646-1.484,4.289-3.35 C22.175,18.34,22.511,18,23,18C25.011,18,26.733,16.806,27.526,15.095z" opacity=".3"/><circle cx="32" cy="38" r="3" fill="#ffa602"/><path fill="#fff" d="M42.5,40.5c-0.828,0-1.5-0.672-1.5-1.5c0-2.757,2.243-5,5-5c0.828,0,1.5,0.672,1.5,1.5 S46.828,37,46,37c-1.103,0-2,0.897-2,2C44,39.828,43.328,40.5,42.5,40.5z"/><line x1="14.921" x2="13.152" y1="22.303" y2="26.5" fill="none" stroke="#fff" stroke-linecap="round" stroke-miterlimit="10" stroke-width="3"/></svg>