<svg xmlns="http://www.w3.org/2000/svg"  viewBox="0 0 64 64" width="64px" height="64px" baseProfile="basic"><circle cx="32" cy="32" r="23" fill="#37d0ee"/><ellipse cx="32" cy="61" opacity=".3" rx="19" ry="3"/><path fill="#fff" d="M32,14c2.577,0,4.674-1.957,4.946-4.461C35.352,9.19,33.699,9,32,9	C19.297,9,9,19.297,9,32c0,1.699,0.19,3.352,0.539,4.946C12.044,36.674,14,34.577,14,32C14,22.075,22.075,14,32,14z" opacity=".3"/><path fill="none" stroke="#fff" stroke-linecap="round" stroke-linejoin="round" stroke-miterlimit="10" stroke-width="3" d="M15.047,23.427c1.878-3.699,4.932-6.705,8.666-8.522"/><path fill="#fff" d="M40,19h-3.987c-6.282,0-7.993,2.994-7.997,8.326L28,31h-4c-0.552,0-1,0.448-1,1v4	c0,0.552,0.448,1,1,1h4v17.646C29.3,54.874,30.635,55,32,55c1.018,0,2.018-0.073,3.001-0.201l0.006-17.793l4.325-0.005	c0.488-0.001,0.905-0.354,0.985-0.836l0.667-4.001C41.085,31.555,40.615,31,39.997,31H35l-0.003-3.331	c0-1.707,0.274-2.674,2.72-2.674l2.281,0.004c0.553,0.001,1.002-0.447,1.002-1V20C41,19.448,40.552,19,40,19z"/><path d="M54.461,27.054C51.956,27.326,50,29.423,50,32c0,9.925-8.075,18-18,18	c-2.577,0-4.674,1.957-4.946,4.461C28.648,54.81,30.301,55,32,55c12.703,0,23-10.297,23-23C55,30.301,54.81,28.648,54.461,27.054z" opacity=".15"/></svg>